<svg xmlns="http://www.w3.org/2000/svg" width="1440" height="3334" viewBox="0 0 1440 3334" font-family="Vazirmatn, Tahoma, sans-serif">
<style>.dim{font:10px monospace;fill:#FF4FA3;direction:ltr}.band{font-size:11px;fill:#FF4FA3;opacity:.9}</style>
<rect width="1440" height="3334" fill="#020D1B"/>
<rect x="1434" y="0" width="6" height="72" fill="#FF4FA3" opacity=".5"/>
<text x="1430" y="16" class="band" direction="rtl" text-anchor="start">Header · y=0 · h=72</text>
<line x1="0" y1="72" x2="1440" y2="72" stroke="#08182F" stroke-width="1"/>
<rect x="1290" y="14" width="86" height="44" rx="2" fill="none" fill-opacity="1" stroke="#9AA3B4" stroke-width="1"/>
<text x="1296" y="27" class="dim" direction="ltr" text-anchor="start">86×44</text>
<text x="1370" y="44" font-size="16" fill="#FFFFFF" font-weight="800" direction="rtl" text-anchor="start">NG CORION</text>
<text x="990" y="42" font-size="15" fill="#D3DBEE" font-weight="500" direction="rtl" text-anchor="start">خانه</text>
<text x="900" y="42" font-size="15" fill="#D3DBEE" font-weight="500" direction="rtl" text-anchor="start">محصول</text>
<text x="810" y="42" font-size="15" fill="#D3DBEE" font-weight="500" direction="rtl" text-anchor="start">خدمات</text>
<text x="720" y="42" font-size="15" fill="#D3DBEE" font-weight="500" direction="rtl" text-anchor="start">منابع</text>
<text x="630" y="42" font-size="15" fill="#D3DBEE" font-weight="500" direction="rtl" text-anchor="start">درباره ما</text>
<text x="540" y="42" font-size="15" fill="#D3DBEE" font-weight="500" direction="rtl" text-anchor="start">تماس با ما</text>
<rect x="124" y="14" width="136" height="44" rx="6" fill="#0A63F6" fill-opacity="1" stroke="none" stroke-width="1"/>
<text x="130" y="27" class="dim" direction="ltr" text-anchor="start">136×44</text>
<text x="192" y="42" font-size="14" fill="#FFFFFF" font-weight="700" direction="rtl" text-anchor="middle">درخواست دمو</text>
<rect x="64" y="14" width="44" height="44" rx="6" fill="#03142D" fill-opacity="1" stroke="#0B1D38" stroke-width="1"/>
<text x="70" y="27" class="dim" direction="ltr" text-anchor="start">44×44</text>
<text x="86" y="42" font-size="20" fill="#FFFFFF" font-weight="400" direction="rtl" text-anchor="middle">≡</text>
<rect x="1434" y="72" width="6" height="472" fill="#FF4FA3" opacity=".5"/>
<text x="1430" y="88" class="band" direction="rtl" text-anchor="start">Hero · y=72 · h=472</text>
<text x="1376" y="150" font-size="14" fill="#4D8DFF" font-weight="400" direction="rtl" text-anchor="start">خانه / قوانین و مقررات</text>
<text x="1376" y="216" font-size="40" fill="#FFFFFF" font-weight="800" direction="rtl" text-anchor="start">قوانین و مقررات</text>
<text x="1376" y="258" font-size="18" fill="#D3DBEE" font-weight="400" direction="rtl" text-anchor="start">شرایط و ضوابط استفاده از وب‌سایت، پورتال، نرم‌افزار و خدمات NGCorion</text>
<text x="1376" y="314" font-size="16" fill="#D3DBEE" font-weight="400" direction="rtl" text-anchor="start">استفاده از خدمات به NGCorion به‌معنی مطالعه، درک و پذیرش کامل</text>
<text x="1376" y="344" font-size="16" fill="#D3DBEE" font-weight="400" direction="rtl" text-anchor="start">شرایط مندرج در این صفحه است.</text>
<rect x="1344" y="392" width="32" height="32" rx="6" fill="#0A1F44" fill-opacity="1" stroke="#1D4ED8" stroke-width="1"/>
<text x="1332" y="414" font-size="14" fill="#9AA3B4" font-weight="400" direction="rtl" text-anchor="start">آخرین به‌روزرسانی: شهریور ۱۴۰۵</text>
<rect x="40" y="86" width="600" height="450" rx="4" fill="none" fill-opacity="1" stroke="#1D4ED8" stroke-width="1"/>
<text x="46" y="99" class="dim" direction="ltr" text-anchor="start">600×450</text>
<text x="340" y="316" font-size="16" fill="#9AA3B4" font-weight="400" direction="rtl" text-anchor="middle">تصویر hero (asset) — 600×450</text>
<rect x="1434" y="568" width="6" height="1734" fill="#FF4FA3" opacity=".5"/>
<text x="1430" y="584" class="band" direction="rtl" text-anchor="start">محتوا · y=568 · h=1734</text>
<rect x="64" y="568" width="320" height="828" rx="12" fill="#020D1B" fill-opacity="1" stroke="#0B1D38" stroke-width="1"/>
<text x="70" y="581" class="dim" direction="ltr" text-anchor="start">320×828</text>
<text x="304" y="618" font-size="18" fill="#FFFFFF" font-weight="700" direction="rtl" text-anchor="start">فهرست مطالب</text>
<rect x="316" y="592" width="40" height="40" rx="8" fill="none" fill-opacity="1" stroke="#1D4ED8" stroke-width="1"/>
<rect x="80" y="652" width="288" height="52" rx="6" fill="#0A63F6" fill-opacity="1" stroke="none" stroke-width="1"/>
<text x="86" y="665" class="dim" direction="ltr" text-anchor="start">288×52</text>
<text x="352" y="684" font-size="12" fill="#FFFFFF" font-weight="400" direction="rtl" text-anchor="start">01</text>
<text x="320" y="684" font-size="14" fill="#FFFFFF" font-weight="400" direction="rtl" text-anchor="start">کلیات و پذیرش شرایط</text>
<rect x="80" y="704" width="288" height="52" rx="6" fill="#0A1F44" fill-opacity="1" stroke="none" stroke-width="1"/>
<text x="352" y="736" font-size="12" fill="#9AA3B4" font-weight="400" direction="rtl" text-anchor="start">02</text>
<text x="320" y="736" font-size="14" fill="#D3DBEE" font-weight="400" direction="rtl" text-anchor="start">تعاریف</text>
<text x="352" y="788" font-size="12" fill="#9AA3B4" font-weight="400" direction="rtl" text-anchor="start">03</text>
<text x="320" y="788" font-size="14" fill="#D3DBEE" font-weight="400" direction="rtl" text-anchor="start">حساب کاربری و دسترسی</text>
<text x="352" y="840" font-size="12" fill="#9AA3B4" font-weight="400" direction="rtl" text-anchor="start">04</text>
<text x="320" y="840" font-size="14" fill="#D3DBEE" font-weight="400" direction="rtl" text-anchor="start">مجوز استفاده از نرم‌افزار</text>
<text x="352" y="892" font-size="12" fill="#9AA3B4" font-weight="400" direction="rtl" text-anchor="start">05</text>
<text x="320" y="892" font-size="14" fill="#D3DBEE" font-weight="400" direction="rtl" text-anchor="start">مالکیت فکری</text>
<text x="352" y="944" font-size="12" fill="#9AA3B4" font-weight="400" direction="rtl" text-anchor="start">06</text>
<text x="320" y="944" font-size="14" fill="#D3DBEE" font-weight="400" direction="rtl" text-anchor="start">امنیت و محرمانگی</text>
<text x="352" y="996" font-size="12" fill="#9AA3B4" font-weight="400" direction="rtl" text-anchor="start">07</text>
<text x="320" y="996" font-size="14" fill="#D3DBEE" font-weight="400" direction="rtl" text-anchor="start">استفاده مجاز</text>
<text x="352" y="1048" font-size="12" fill="#9AA3B4" font-weight="400" direction="rtl" text-anchor="start">08</text>
<text x="320" y="1048" font-size="14" fill="#D3DBEE" font-weight="400" direction="rtl" text-anchor="start">خدمات و پشتیبانی</text>
<text x="352" y="1100" font-size="12" fill="#9AA3B4" font-weight="400" direction="rtl" text-anchor="start">09</text>
<text x="320" y="1100" font-size="14" fill="#D3DBEE" font-weight="400" direction="rtl" text-anchor="start">به‌روزرسانی و توسعه</text>
<text x="352" y="1152" font-size="12" fill="#9AA3B4" font-weight="400" direction="rtl" text-anchor="start">10</text>
<text x="320" y="1152" font-size="14" fill="#D3DBEE" font-weight="400" direction="rtl" text-anchor="start">داده‌ها و حریم خصوصی</text>
<text x="352" y="1204" font-size="12" fill="#9AA3B4" font-weight="400" direction="rtl" text-anchor="start">11</text>
<text x="320" y="1204" font-size="14" fill="#D3DBEE" font-weight="400" direction="rtl" text-anchor="start">محدودیت مسئولیت</text>
<text x="352" y="1256" font-size="12" fill="#9AA3B4" font-weight="400" direction="rtl" text-anchor="start">12</text>
<text x="320" y="1256" font-size="14" fill="#D3DBEE" font-weight="400" direction="rtl" text-anchor="start">تعلیق یا خاتمه دسترسی</text>
<text x="352" y="1308" font-size="12" fill="#9AA3B4" font-weight="400" direction="rtl" text-anchor="start">13</text>
<text x="320" y="1308" font-size="14" fill="#D3DBEE" font-weight="400" direction="rtl" text-anchor="start">تغییر قوانین و مقررات</text>
<text x="352" y="1360" font-size="12" fill="#9AA3B4" font-weight="400" direction="rtl" text-anchor="start">14</text>
<text x="320" y="1360" font-size="14" fill="#D3DBEE" font-weight="400" direction="rtl" text-anchor="start">ارتباط با NGCorion</text>
<rect x="416" y="568" width="960" height="262" rx="12" fill="#03142D" fill-opacity="1" stroke="#1D4ED8" stroke-width="1"/>
<text x="422" y="581" class="dim" direction="ltr" text-anchor="start">960×262</text>
<rect x="1272" y="600" width="72" height="72" rx="8" fill="#0B3A9E" fill-opacity="1" stroke="#1D4ED8" stroke-width="1"/>
<text x="1278" y="613" class="dim" direction="ltr" text-anchor="start">72×72</text>
<text x="1308" y="645" font-size="26" fill="#FFFFFF" font-weight="800" direction="rtl" text-anchor="middle">01</text>
<text x="1240" y="630" font-size="22" fill="#FFFFFF" font-weight="700" direction="rtl" text-anchor="start">کلیات و پذیرش شرایط</text>
<rect x="480" y="658" width="760" height="8" rx="4" fill="#D3DBEE" fill-opacity="0.18" stroke="none" stroke-width="1"/>
<rect x="480" y="690" width="760" height="8" rx="4" fill="#D3DBEE" fill-opacity="0.18" stroke="none" stroke-width="1"/>
<rect x="480" y="722" width="760" height="8" rx="4" fill="#D3DBEE" fill-opacity="0.18" stroke="none" stroke-width="1"/>
<rect x="820" y="754" width="420" height="8" rx="4" fill="#D3DBEE" fill-opacity="0.18" stroke="none" stroke-width="1"/>
<rect x="416" y="846" width="960" height="304" rx="12" fill="#03142D" fill-opacity="1" stroke="#1D4ED8" stroke-width="1"/>
<text x="422" y="859" class="dim" direction="ltr" text-anchor="start">960×304</text>
<rect x="1272" y="878" width="72" height="72" rx="8" fill="#0B3A9E" fill-opacity="1" stroke="#1D4ED8" stroke-width="1"/>
<text x="1308" y="923" font-size="26" fill="#FFFFFF" font-weight="800" direction="rtl" text-anchor="middle">02</text>
<text x="1240" y="908" font-size="22" fill="#FFFFFF" font-weight="700" direction="rtl" text-anchor="start">تعاریف</text>
<rect x="480" y="936" width="760" height="8" rx="4" fill="#D3DBEE" fill-opacity="0.18" stroke="none" stroke-width="1"/>
<rect x="480" y="968" width="760" height="8" rx="4" fill="#D3DBEE" fill-opacity="0.18" stroke="none" stroke-width="1"/>
<rect x="480" y="1000" width="760" height="8" rx="4" fill="#D3DBEE" fill-opacity="0.18" stroke="none" stroke-width="1"/>
<rect x="480" y="1032" width="760" height="8" rx="4" fill="#D3DBEE" fill-opacity="0.18" stroke="none" stroke-width="1"/>
<rect x="820" y="1064" width="420" height="8" rx="4" fill="#D3DBEE" fill-opacity="0.18" stroke="none" stroke-width="1"/>
<rect x="416" y="1166" width="960" height="270" rx="12" fill="#03142D" fill-opacity="1" stroke="#1D4ED8" stroke-width="1"/>
<text x="422" y="1179" class="dim" direction="ltr" text-anchor="start">960×270</text>
<rect x="1272" y="1198" width="72" height="72" rx="8" fill="#0B3A9E" fill-opacity="1" stroke="#1D4ED8" stroke-width="1"/>
<text x="1308" y="1243" font-size="26" fill="#FFFFFF" font-weight="800" direction="rtl" text-anchor="middle">03</text>
<text x="1240" y="1228" font-size="22" fill="#FFFFFF" font-weight="700" direction="rtl" text-anchor="start">حساب کاربری و دسترسی</text>
<rect x="480" y="1256" width="760" height="8" rx="4" fill="#D3DBEE" fill-opacity="0.18" stroke="none" stroke-width="1"/>
<rect x="480" y="1288" width="760" height="8" rx="4" fill="#D3DBEE" fill-opacity="0.18" stroke="none" stroke-width="1"/>
<rect x="480" y="1320" width="760" height="8" rx="4" fill="#D3DBEE" fill-opacity="0.18" stroke="none" stroke-width="1"/>
<rect x="820" y="1352" width="420" height="8" rx="4" fill="#D3DBEE" fill-opacity="0.18" stroke="none" stroke-width="1"/>
<rect x="416" y="1452" width="960" height="284" rx="12" fill="#03142D" fill-opacity="1" stroke="#1D4ED8" stroke-width="1"/>
<text x="422" y="1465" class="dim" direction="ltr" text-anchor="start">960×284</text>
<rect x="1272" y="1484" width="72" height="72" rx="8" fill="#0B3A9E" fill-opacity="1" stroke="#1D4ED8" stroke-width="1"/>
<text x="1308" y="1529" font-size="26" fill="#FFFFFF" font-weight="800" direction="rtl" text-anchor="middle">04</text>
<text x="1240" y="1514" font-size="22" fill="#FFFFFF" font-weight="700" direction="rtl" text-anchor="start">مجوز استفاده از نرم‌افزار</text>
<rect x="480" y="1542" width="760" height="8" rx="4" fill="#D3DBEE" fill-opacity="0.18" stroke="none" stroke-width="1"/>
<rect x="480" y="1574" width="760" height="8" rx="4" fill="#D3DBEE" fill-opacity="0.18" stroke="none" stroke-width="1"/>
<rect x="480" y="1606" width="760" height="8" rx="4" fill="#D3DBEE" fill-opacity="0.18" stroke="none" stroke-width="1"/>
<rect x="480" y="1638" width="760" height="8" rx="4" fill="#D3DBEE" fill-opacity="0.18" stroke="none" stroke-width="1"/>
<rect x="820" y="1670" width="420" height="8" rx="4" fill="#D3DBEE" fill-opacity="0.18" stroke="none" stroke-width="1"/>
<rect x="416" y="1752" width="960" height="272" rx="12" fill="#03142D" fill-opacity="1" stroke="#1D4ED8" stroke-width="1"/>
<text x="422" y="1765" class="dim" direction="ltr" text-anchor="start">960×272</text>
<rect x="1272" y="1784" width="72" height="72" rx="8" fill="#0B3A9E" fill-opacity="1" stroke="#1D4ED8" stroke-width="1"/>
<text x="1308" y="1829" font-size="26" fill="#FFFFFF" font-weight="800" direction="rtl" text-anchor="middle">05</text>
<text x="1240" y="1814" font-size="22" fill="#FFFFFF" font-weight="700" direction="rtl" text-anchor="start">مالکیت فکری</text>
<rect x="480" y="1842" width="760" height="8" rx="4" fill="#D3DBEE" fill-opacity="0.18" stroke="none" stroke-width="1"/>
<rect x="480" y="1874" width="760" height="8" rx="4" fill="#D3DBEE" fill-opacity="0.18" stroke="none" stroke-width="1"/>
<rect x="480" y="1906" width="760" height="8" rx="4" fill="#D3DBEE" fill-opacity="0.18" stroke="none" stroke-width="1"/>
<rect x="820" y="1938" width="420" height="8" rx="4" fill="#D3DBEE" fill-opacity="0.18" stroke="none" stroke-width="1"/>
<rect x="416" y="2040" width="960" height="262" rx="12" fill="#03142D" fill-opacity="1" stroke="#1D4ED8" stroke-width="1"/>
<text x="422" y="2053" class="dim" direction="ltr" text-anchor="start">960×262</text>
<rect x="1272" y="2072" width="72" height="72" rx="8" fill="#0B3A9E" fill-opacity="1" stroke="#1D4ED8" stroke-width="1"/>
<text x="1308" y="2117" font-size="26" fill="#FFFFFF" font-weight="800" direction="rtl" text-anchor="middle">06</text>
<text x="1240" y="2102" font-size="22" fill="#FFFFFF" font-weight="700" direction="rtl" text-anchor="start">امنیت و محرمانگی</text>
<rect x="480" y="2130" width="760" height="8" rx="4" fill="#D3DBEE" fill-opacity="0.18" stroke="none" stroke-width="1"/>
<rect x="480" y="2162" width="760" height="8" rx="4" fill="#D3DBEE" fill-opacity="0.18" stroke="none" stroke-width="1"/>
<rect x="480" y="2194" width="760" height="8" rx="4" fill="#D3DBEE" fill-opacity="0.18" stroke="none" stroke-width="1"/>
<rect x="820" y="2226" width="420" height="8" rx="4" fill="#D3DBEE" fill-opacity="0.18" stroke="none" stroke-width="1"/>
<text x="720" y="2340" font-size="13" fill="#4D8DFF" font-weight="400" direction="rtl" text-anchor="middle">ⓘ برای مشاهده ادامه قوانین و مقررات، به پایین صفحه مراجعه کنید</text>
<rect x="1434" y="2386" width="6" height="240" fill="#FF4FA3" opacity=".5"/>
<text x="1430" y="2402" class="band" direction="rtl" text-anchor="start">CTA · y=2386 · h=240</text>
<rect x="64" y="2386" width="1312" height="240" rx="12" fill="#031A40" fill-opacity="1" stroke="#1D4ED8" stroke-width="1"/>
<text x="70" y="2399" class="dim" direction="ltr" text-anchor="start">1312×240</text>
<rect x="1166" y="2421" width="170" height="170" rx="85" fill="none" fill-opacity="1" stroke="#1D4ED8" stroke-width="1"/>
<text x="1172" y="2434" class="dim" direction="ltr" text-anchor="start">170×170</text>
<text x="1251" y="2516" font-size="36" fill="#4D8DFF" font-weight="700" direction="rtl" text-anchor="middle">؟</text>
<text x="1116" y="2434" font-size="22" fill="#FFFFFF" font-weight="700" direction="rtl" text-anchor="start">سؤالی درباره قوانین استفاده از NGCorion دارید؟</text>
<text x="1116" y="2466" font-size="14" fill="#D3DBEE" font-weight="400" direction="rtl" text-anchor="start">تیم ما آماده پاسخ‌گویی به سؤالات مرتبط با License، استفاده از محصول و خدمات NGCorion است.</text>
<rect x="920" y="2546" width="196" height="48" rx="6" fill="#0A63F6" fill-opacity="1" stroke="none" stroke-width="1"/>
<text x="926" y="2559" class="dim" direction="ltr" text-anchor="start">196×48</text>
<text x="1018" y="2575" font-size="14" fill="#FFFFFF" font-weight="700" direction="rtl" text-anchor="middle">تماس با ما ←</text>
<rect x="1434" y="2650" width="6" height="144" fill="#FF4FA3" opacity=".5"/>
<text x="1430" y="2666" class="band" direction="rtl" text-anchor="start">لینک‌های مرتبط · y=2650 · h=144</text>
<rect x="64" y="2650" width="1312" height="144" rx="12" fill="none" fill-opacity="1" stroke="#0B1D38" stroke-width="1"/>
<text x="70" y="2663" class="dim" direction="ltr" text-anchor="start">1312×144</text>
<text x="1352" y="2690" font-size="16" fill="#FFFFFF" font-weight="700" direction="rtl" text-anchor="start">🔗 لینک‌های مرتبط</text>
<rect x="1136" y="2714" width="216" height="56" rx="8" fill="#03142D" fill-opacity="1" stroke="#0B1D38" stroke-width="1"/>
<text x="1142" y="2727" class="dim" direction="ltr" text-anchor="start">216×56</text>
<text x="1296" y="2748" font-size="14" fill="#D3DBEE" font-weight="400" direction="rtl" text-anchor="start">حریم خصوصی</text>
<rect x="1308" y="2732" width="20" height="20" rx="4" fill="none" fill-opacity="1" stroke="#4D8DFF" stroke-width="1"/>
<rect x="904" y="2714" width="216" height="56" rx="8" fill="#03142D" fill-opacity="1" stroke="#0B1D38" stroke-width="1"/>
<text x="1064" y="2748" font-size="14" fill="#D3DBEE" font-weight="400" direction="rtl" text-anchor="start">شرایط مجوز</text>
<rect x="1076" y="2732" width="20" height="20" rx="4" fill="none" fill-opacity="1" stroke="#4D8DFF" stroke-width="1"/>
<rect x="672" y="2714" width="216" height="56" rx="8" fill="#03142D" fill-opacity="1" stroke="#0B1D38" stroke-width="1"/>
<text x="832" y="2748" font-size="14" fill="#D3DBEE" font-weight="400" direction="rtl" text-anchor="start">امنیت</text>
<rect x="844" y="2732" width="20" height="20" rx="4" fill="none" fill-opacity="1" stroke="#4D8DFF" stroke-width="1"/>
<rect x="440" y="2714" width="216" height="56" rx="8" fill="#03142D" fill-opacity="1" stroke="#0B1D38" stroke-width="1"/>
<text x="600" y="2748" font-size="14" fill="#D3DBEE" font-weight="400" direction="rtl" text-anchor="start">پشتیبانی</text>
<rect x="612" y="2732" width="20" height="20" rx="4" fill="none" fill-opacity="1" stroke="#4D8DFF" stroke-width="1"/>
<rect x="1434" y="2810" width="6" height="216" fill="#FF4FA3" opacity=".5"/>
<text x="1430" y="2826" class="band" direction="rtl" text-anchor="start">مشتریان ما · y=2810 · h=216</text>
<text x="720" y="2874" font-size="24" fill="#FFFFFF" font-weight="700" direction="rtl" text-anchor="middle">مشتریان ما</text>
<rect x="1234" y="2906" width="64" height="64" rx="32" fill="none" fill-opacity="1" stroke="#9AA3B4" stroke-width="1"/>
<text x="1240" y="2919" class="dim" direction="ltr" text-anchor="start">64×64</text>
<text x="1266" y="2994" font-size="12" fill="#9AA3B4" font-weight="400" direction="rtl" text-anchor="middle">سازمان فناوری اطلاعات ایران</text>
<rect x="1016" y="2906" width="64" height="64" rx="32" fill="none" fill-opacity="1" stroke="#9AA3B4" stroke-width="1"/>
<text x="1048" y="2994" font-size="12" fill="#9AA3B4" font-weight="400" direction="rtl" text-anchor="middle">شرکت مخابرات ایران</text>
<rect x="797" y="2906" width="64" height="64" rx="32" fill="none" fill-opacity="1" stroke="#9AA3B4" stroke-width="1"/>
<text x="829" y="2994" font-size="12" fill="#9AA3B4" font-weight="400" direction="rtl" text-anchor="middle">بانک صادرات ایران</text>
<rect x="578" y="2906" width="64" height="64" rx="32" fill="none" fill-opacity="1" stroke="#9AA3B4" stroke-width="1"/>
<text x="610" y="2994" font-size="12" fill="#9AA3B4" font-weight="400" direction="rtl" text-anchor="middle">[نام ناخوانا]</text>
<rect x="360" y="2906" width="64" height="64" rx="32" fill="none" fill-opacity="1" stroke="#9AA3B4" stroke-width="1"/>
<text x="392" y="2994" font-size="12" fill="#9AA3B4" font-weight="400" direction="rtl" text-anchor="middle">شرکت ملی نفت ایران</text>
<rect x="141" y="2906" width="64" height="64" rx="32" fill="none" fill-opacity="1" stroke="#9AA3B4" stroke-width="1"/>
<text x="173" y="2994" font-size="12" fill="#9AA3B4" font-weight="400" direction="rtl" text-anchor="middle">بانک ملت</text>
<rect x="1434" y="3026" width="6" height="308" fill="#FF4FA3" opacity=".5"/>
<text x="1430" y="3042" class="band" direction="rtl" text-anchor="start">Footer · y=3026 · h=308</text>
<line x1="0" y1="3026" x2="1440" y2="3026" stroke="#08182F" stroke-width="1"/>
<rect x="1374" y="3076" width="2" height="16" rx="0" fill="#4D8DFF" fill-opacity="1" stroke="none" stroke-width="1"/>
<text x="1364" y="3090" font-size="15" fill="#FFFFFF" font-weight="700" direction="rtl" text-anchor="start">با ما در ارتباط باشید</text>
<rect x="1340" y="3114" width="36" height="36" rx="6" fill="#0A1F44" fill-opacity="1" stroke="none" stroke-width="1"/>
<text x="1346" y="3127" class="dim" direction="ltr" text-anchor="start">36×36</text>
<rect x="1292" y="3114" width="36" height="36" rx="6" fill="#0A1F44" fill-opacity="1" stroke="none" stroke-width="1"/>
<rect x="1244" y="3114" width="36" height="36" rx="6" fill="#0A1F44" fill-opacity="1" stroke="none" stroke-width="1"/>
<rect x="1196" y="3114" width="36" height="36" rx="6" fill="#0A1F44" fill-opacity="1" stroke="none" stroke-width="1"/>
<text x="1000" y="3090" font-size="15" fill="#FFFFFF" font-weight="700" direction="rtl" text-anchor="start">قوانین</text>
<text x="1000" y="3130" font-size="14" fill="#D3DBEE" font-weight="400" direction="rtl" text-anchor="start">حریم خصوصی</text>
<text x="1000" y="3160" font-size="14" fill="#D3DBEE" font-weight="400" direction="rtl" text-anchor="start">قوانین و مقررات</text>
<text x="1000" y="3190" font-size="14" fill="#D3DBEE" font-weight="400" direction="rtl" text-anchor="start">شرایط مجوز</text>
<text x="700" y="3090" font-size="15" fill="#FFFFFF" font-weight="700" direction="rtl" text-anchor="start">دسترسی سریع</text>
<text x="700" y="3130" font-size="14" fill="#D3DBEE" font-weight="400" direction="rtl" text-anchor="start">محصول</text>
<text x="700" y="3160" font-size="14" fill="#D3DBEE" font-weight="400" direction="rtl" text-anchor="start">خدمات</text>
<text x="700" y="3190" font-size="14" fill="#D3DBEE" font-weight="400" direction="rtl" text-anchor="start">منابع</text>
<text x="700" y="3220" font-size="14" fill="#D3DBEE" font-weight="400" direction="rtl" text-anchor="start">درباره ما</text>
<text x="700" y="3250" font-size="14" fill="#D3DBEE" font-weight="400" direction="rtl" text-anchor="start">تماس با ما</text>
<rect x="64" y="3070" width="108" height="56" rx="2" fill="none" fill-opacity="1" stroke="#9AA3B4" stroke-width="1"/>
<text x="70" y="3083" class="dim" direction="ltr" text-anchor="start">108×56</text>
<text x="118" y="3106" font-size="18" fill="#FFFFFF" font-weight="800" direction="rtl" text-anchor="middle">NG CORION</text>
<text x="354" y="3154" font-size="14" fill="#4D8DFF" font-weight="400" direction="rtl" text-anchor="start">زیرساخت امن، آینده مطمئن</text>
<text x="354" y="3186" font-size="14" fill="#9AA3B4" font-weight="400" direction="rtl" text-anchor="start">NGCorion یک پلتفرم یکپارچه برای مدیریت،</text>
<text x="354" y="3210" font-size="14" fill="#9AA3B4" font-weight="400" direction="rtl" text-anchor="start">ارزیابی و ارتقای امنیت زیرساخت‌های فناوری</text>
<text x="354" y="3234" font-size="14" fill="#9AA3B4" font-weight="400" direction="rtl" text-anchor="start">اطلاعات در سازمان‌ها است.</text>
<line x1="64" y1="3270" x2="1376" y2="3270" stroke="#08182F" stroke-width="1"/>
<text x="1376" y="3308" font-size="13" fill="#9AA3B4" font-weight="400" direction="rtl" text-anchor="start">© ۱۴۰۵ NGCorion. تمامی حقوق محفوظ است.</text>
<text x="300" y="3308" font-size="13" fill="#D3DBEE" font-weight="400" direction="rtl" text-anchor="start">سیاست کوکی‌ها   |   نقشه سایت</text>
</svg>
